# xmcd
#
# Track frame offsets:
# 150
# 19459
# 43811
# 67756
# 86002
# 108795
# 134870
# 150951
# 185548
# 210709
# 233427
# 247449
# 266164
# 295946
#
# Disc length: 4198 seconds
#
# Revision: 0
# Processed by: cddbd v1.5.2PL0 Copyright (c) Steve Scherf et al.
# Submitted via: Audion 3.0.2 (http://www.panic.com/audion/)
#
DISCID=cd10640e
DTITLE=Disco 1 - Grandes adoradores
DYEAR=1900
DGENRE=
TTITLE0=Jesus eres mi buen pastor
TTITLE1=Grandes son tus maravillas
TTITLE2=Quien soy yo
TTITLE3=Proclamemos
TTITLE4=Salmo 23
TTITLE5=Mas que un vencedor
TTITLE6=Oh Senor
TTITLE7=Dejame que te alabe
TTITLE8=Senor, hazme un radical
TTITLE9=Toma mi mano
TTITLE10=No tengo miedo
TTITLE11=Enamorado
TTITLE12=La gracia se derramo sobre ti
TTITLE13=Soy libre de afliccion
EXTD=
EXTT0=
EXTT1=
EXTT2=
EXTT3=
EXTT4=
EXTT5=
EXTT6=
EXTT7=
EXTT8=
EXTT9=
EXTT10=
EXTT11=
EXTT12=
EXTT13=
PLAYORDER=
